<?xml version="1.0" encoding="UTF-8"?>
<svg width="171px" height="200px" viewBox="0 0 171 200" version="1.1" xmlns="http://www.w3.org/2000/svg" xmlns:xlink="http://www.w3.org/1999/xlink">
    <!-- Generator: Sketch 50.2 (55047) - http://www.bohemiancoding.com/sketch -->
    <title>LOGO-LINE-b</title>
    <desc>Created with Sketch.</desc>
    <defs></defs>
    <g id="修改" stroke="none" stroke-width="1" fill="none" fill-rule="evenodd">
        <g id="logo" transform="translate(-799.000000, -624.000000)" fill="#090A0C" fill-rule="nonzero">
            <g id="LOGO-LINE-b" transform="translate(799.000000, 624.000000)">
                <path d="M6.86239935,186.81749 L130.62669,175.001764 L130.62669,134.945366 L106.771552,137.189193 L73.3981797,140.455639 C72.1545282,140.577363 70.912464,140.209072 69.9368229,139.429294 C69.2381735,138.8709 69.1250668,137.852607 69.6841921,137.154872 C69.7462223,137.077465 69.8152448,137.005914 69.8903888,136.941124 L167.137097,53.0934826 L167.119443,14.4617947 C167.119443,13.6695464 166.663189,12.9783561 165.939416,12.6184439 C165.716147,12.5149729 165.470501,12.4503569 165.21092,12.4335391 L40.3544309,3.91536861 L40.3544309,44.8046333 L108.179957,48.9676172 C109.535443,49.050814 110.789351,49.7131227 111.62113,50.7852294 C112.357615,51.7345099 112.231304,53.0914261 111.332224,53.8888557 L103.648067,60.704234 C103.613715,60.7475096 103.575133,60.7884075 103.532356,60.8263446 L8.27666262,145.30404 C7.45931347,146.028908 6.98989387,147.067206 6.98598021,148.158869 L6.84860807,186.476919 C6.84819717,186.591534 6.85285979,186.705134 6.86239935,186.81749 Z M10.2048293,190.29893 L37.2818191,194.760888 L42.972505,195.679796 C45.7262208,196.158003 48.5296114,196.282035 51.3150039,196.049743 L163.659328,186.018755 C163.843185,186.002339 164.023053,185.973168 164.19809,185.932163 L131.589272,178.710376 L10.2048293,190.29893 Z M167.131414,182.655987 C167.149558,182.504187 167.158799,182.349795 167.158625,182.193375 L167.119443,147.09838 C167.119443,144.242045 165.129568,141.76928 162.329777,141.147683 L134.521712,135.03938 C134.503838,135.035454 134.485955,135.031579 134.468063,135.027756 L134.468063,175.422123 L167.131414,182.655987 Z M96.5867991,134.453723 L164.742536,74.3421503 C166.25438,73.0057529 167.119731,71.0886248 167.14435,68.9668687 L167.139406,58.1474392 L76.4201971,136.393284 L96.5867991,134.453723 Z M99.8055348,59.0413563 L107.113247,52.5638403 L38.3636551,48.1740936 L6.02114145,55.6211337 C6.34548739,55.7200698 6.70155544,55.7801744 7.08564921,55.7946172 L99.8055348,59.0413563 Z M3.88515416,52.1725468 L36.5130582,44.5877216 L36.5130582,4.12997792 C36.4571684,4.1441131 36.4013871,4.15875563 36.3457213,4.1739049 L8.40628089,11.6998827 C5.72527762,12.4118155 3.86139001,14.8293757 3.86139001,17.5917895 L3.84099579,19.045579 L3.88515416,52.1725468 Z M6.94111817,59.6282449 C3.05340284,59.4820582 0.0497590307,56.6594077 0.0447550444,52.9054896 L0,18.9918372 L0.0200172876,17.5917895 C0.0200172876,13.088458 3.05705265,9.1507115 7.40593205,7.99590429 L35.3357611,0.472528802 C36.7890547,0.0770195558 38.2985666,-0.0717803051 39.7971557,0.0320640759 L165.459599,8.60524233 C166.190366,8.65258742 166.900081,8.83437683 167.556367,9.13852379 C169.663733,10.1848356 170.960815,12.1939705 170.960815,14.4600439 L170.985465,69.0113221 C170.948494,72.1975555 169.626565,75.1481407 167.285329,77.2176777 L103.285597,133.663762 L131.198069,131.0383 C132.585846,130.907765 133.985509,130.993555 135.346888,131.292594 L163.163389,137.40276 C167.718831,138.414139 170.960815,142.442249 170.960813,147.094102 L170.999995,182.189097 C171.004434,186.165106 167.966808,189.485795 164.001401,189.839858 L51.6346686,199.872781 C48.5221083,200.132358 45.3901435,199.993551 42.3593658,199.466956 L36.6564342,198.54605 L9.43918646,194.060979 C5.7187561,193.447898 2.99375947,190.228961 3.00725997,186.463184 L3.1446321,148.145134 C3.15245944,145.961806 4.09129864,143.885211 5.72599694,142.435475 L95.5975584,62.7327076 L6.94111817,59.6282449 Z"></path>
            </g>
        </g>
    </g>
</svg>