<?xml version="1.0" encoding="UTF-8"?>
<svg width="170px" height="200px" viewBox="0 0 170 200" version="1.1" xmlns="http://www.w3.org/2000/svg" xmlns:xlink="http://www.w3.org/1999/xlink">
    <!-- Generator: Sketch 50.2 (55047) - http://www.bohemiancoding.com/sketch -->
    <title>logo-B</title>
    <desc>Created with Sketch.</desc>
    <defs></defs>
    <g id="修改" stroke="none" stroke-width="1" fill="none" fill-rule="evenodd">
        <g id="logo" transform="translate(-160.000000, -624.000000)" fill="#090A0C">
            <g id="logo-B" transform="translate(160.000000, 624.000000)">
                <path d="M0.516512025,49.696119 C0.251134294,49.7544268 0,49.5540871 0,49.281984 L0,13.810649 C0,10.9303924 1.94085578,8.40970074 4.73256954,7.6673974 L33.1512261,0.113545215 C33.4218514,0.0425292864 33.6857298,0.245111567 33.6857298,0.523194992 L33.6857298,40.6359816 C33.6857298,41.6287095 32.9937986,42.488376 32.0222462,42.7044139 L0.516512025,49.696119 Z M3.27943905,52.8059439 L30.1508085,46.8555566 C33.7843843,46.0512078 37.5124167,45.7492032 41.2299539,45.9570182 L108.962747,49.7492688 C109.351068,49.7701998 109.509995,50.2583409 109.207884,50.5035327 L106.071329,53.0444079 C103.018736,55.5194999 99.1715082,56.8104947 95.2395698,56.681171 L3.35740313,53.6431843 C2.85813316,53.6267385 2.79216355,52.9143366 3.27943905,52.8059439 Z M165.012248,142.637356 C167.927655,143.28547 169.9997,145.863722 169.9997,148.841905 L169.9997,185.581062 C169.9997,185.853165 169.747816,186.054252 169.482438,185.995197 L137.976704,179.003491 C137.005152,178.787454 136.313221,177.927787 136.313221,176.935059 L136.313221,136.783401 C136.313221,136.512045 136.565854,136.31021 136.830482,136.369266 L165.012248,142.637356 Z M137.243467,182.91916 L166.953779,188.574271 C167.438805,188.666218 167.402822,189.371144 166.909549,189.412259 L49.4131836,199.881502 C46.5127699,200.123703 43.5936149,199.99438 40.726186,199.495773 L8.61248193,194.303387 C8.12145816,194.218168 8.15369331,193.505019 8.64996466,193.463157 L132.638339,182.676959 C134.17663,182.548382 135.726916,182.630611 137.243467,182.91916 Z M37.8865693,0.000891526246 L168.012366,8.43235108 C169.130101,8.50486208 169.9997,9.42956423 169.9997,10.5471307 L169.9997,49.131206 C169.9997,50.2697034 169.502679,51.3528832 168.639077,52.0974292 L65.2991894,141.147666 C64.8059166,141.572266 65.1492584,142.37811 65.7977097,142.319055 L132.101661,136.296157 C132.350546,136.273731 132.564948,136.469585 132.564948,136.718515 L132.564948,176.683289 C132.564948,177.779177 131.727583,178.694161 130.633088,178.793583 L3.57562758,190.606896 C3.32674225,190.629322 3.11234103,190.433468 3.11234103,190.184538 C3.14832446,162.221207 3.19755178,148.212629 3.26002299,148.158807 C78.9191642,81.0355479 116.685514,47.4699316 116.559072,47.4619579 L39.421862,42.4639316 C38.3041269,42.3914206 37.4337779,41.4667184 37.4337779,40.3498995 L37.4337779,0.423996953 C37.4337779,0.178805116 37.6414323,-0.0148067316 37.8865693,0.000891526246 Z M169.311067,55.8282323 C169.581693,55.5972436 170,55.7901079 170,56.1459351 L170,67.4905428 C170,69.5896242 169.098915,71.5885357 167.52464,72.9819429 L97.0001336,135.4184 C95.9925978,136.31021 94.7369264,136.876095 93.3995425,137.042048 L71.9999021,139.686831 C71.487888,139.750371 71.2060179,139.110481 71.5988369,138.777079 L169.311067,55.8282323 Z"></path>
            </g>
        </g>
    </g>
</svg>