<?xml version="1.0" encoding="UTF-8"?>
<svg width="100px" height="100px" viewBox="0 0 100 100" version="1.1" xmlns="http://www.w3.org/2000/svg" xmlns:xlink="http://www.w3.org/1999/xlink">
    <!-- Generator: Sketch 50.2 (55047) - http://www.bohemiancoding.com/sketch -->
    <title>react</title>
    <desc>Created with Sketch.</desc>
    <defs></defs>
    <g id="修改" stroke="none" stroke-width="1" fill="none" fill-rule="evenodd">
        <path d="M82.2204323,33.8464556 C93.0207651,37.5656213 100,43.3916206 100,49.4155092 C100,55.6979375 92.5414683,61.840471 81.0772894,65.6397664 C80.4714192,65.8407545 79.8505019,66.0337739 79.2176353,66.2205955 C79.443343,67.1290264 79.6447096,68.0210772 79.8173096,68.8945344 C82.0805821,80.3300503 80.3377649,89.7291227 74.9738887,92.8351418 C69.7803997,95.8424377 61.3867302,92.8882664 52.8877304,85.5725643 C51.9639279,84.7754507 51.0625174,83.9527326 50.1845492,83.1053687 C49.4875108,83.7796086 48.7913576,84.4228592 48.0978598,85.0293652 C39.3235851,92.7014449 30.3129813,95.8844947 24.9442369,92.7877724 C19.7463223,89.7884452 18.1128184,81.0392639 20.2043761,70.0203335 C20.432918,68.8228119 20.6948706,67.6319129 20.9899272,66.4490313 C20.081689,66.1896924 19.1800536,65.9077492 18.285861,65.6034645 C7.25805024,61.8333878 0,55.6151517 0,49.4155092 C0,43.4133132 6.76149339,37.6262719 17.3485103,33.9341112 C18.5319266,33.52151 19.7688931,33.1337003 21.0496734,32.7697967 C20.7752984,31.6718353 20.5288582,30.5670771 20.3105914,29.4565916 C18.1168015,18.2428709 19.6604649,9.28119121 24.872099,6.26327041 C30.307228,3.11607972 39.3589902,6.4956906 48.3895095,14.5166219 C48.951232,15.0166347 49.5036467,15.5270137 50.0464692,16.0474962 C50.8570479,15.264746 51.6872679,14.5026073 52.5363345,13.7618097 C61.1530563,6.26105689 69.6848059,3.123163 74.9013082,6.1326724 C80.3421905,9.27056628 81.9354211,18.8028929 79.4986635,30.6355153 C79.3464021,31.3706077 79.1805597,32.1028197 79.0012215,32.8317754 C80.0826409,33.1429019 81.1560518,33.481236 82.2204323,33.8464556 Z M79.733665,61.5837021 L79.7341075,61.5837021 C89.6320523,58.3028144 95.7283719,53.2825384 95.7283719,49.4155092 C95.7283719,45.7853272 90.0839101,41.0736166 80.8298961,37.8874679 C79.8730726,37.5576526 78.8799589,37.2455455 77.8571934,36.948933 C76.6268654,40.9310656 74.9849528,45.1380923 72.9903167,49.436759 C75.0801041,53.8394614 76.7884013,58.1013836 78.0541344,62.109193 C78.6259272,61.939637 79.1870984,61.7647685 79.733665,61.5837021 Z M75.6266707,69.7246065 C75.4704456,68.9352633 75.2889943,68.1282118 75.0854149,67.3047803 C70.943458,68.2623515 66.3761971,68.9640391 61.5416276,69.3930204 C58.7933049,73.3729394 55.9772699,76.95708 53.1594647,80.0400785 C54.0012215,80.8502288 54.8407655,81.6161087 55.6741135,82.333291 C62.9419002,88.5895997 69.6817079,90.9616138 72.8332065,89.1367833 C74.3140257,88.2792634 75.511604,86.1383415 76.1072952,82.9269586 C76.7702562,79.3530001 76.627308,74.7811844 75.6266707,69.7246065 Z M34.0920356,88.8215772 L34.0924782,88.8215772 C37.518809,87.6107787 41.4067341,85.2042337 45.286693,81.8113417 C45.9360736,81.2421102 46.5713454,80.6569719 47.1919312,80.0564586 C44.2718936,76.9216636 41.3744269,73.34195 38.6079591,69.4474731 C33.7618828,69.054351 29.2278143,68.4022463 25.1318841,67.4960289 C24.857827,68.596121 24.6143232,69.7036047 24.4016534,70.8172027 C22.6132521,80.2401812 23.9241268,87.2659114 27.0787233,89.0854295 C28.5608703,89.9402931 31.0131176,89.9093037 34.0920356,88.8215772 Z M19.6675459,61.559796 C20.4839643,61.837645 21.3070869,62.0953772 22.1361681,62.3327591 C23.3992459,58.213388 25.0641718,53.8886017 27.0707571,49.5195449 C25.0898405,45.2146803 23.4483705,40.9576279 22.1967994,36.8860689 C21.0392038,37.2134941 19.8914387,37.5747487 18.7549788,37.9693683 C9.70056117,41.1271839 4.2716281,45.7733742 4.2716281,49.4155092 C4.2716281,51.1274499 5.52408434,53.2369398 8.00421321,55.3619243 C10.7644851,57.7259697 14.7913753,59.8925685 19.6675459,61.559796 Z M24.5030006,28.6358163 L24.5030006,28.6353736 C24.7061783,29.6683577 24.9353518,30.6960551 25.1903025,31.7174866 C29.3291614,30.7793945 33.8313654,30.079035 38.5344934,29.6429704 C41.2770628,25.7710715 44.1479757,22.2183629 47.0529661,19.0977345 C46.551541,18.6182849 46.0510011,18.1547726 45.552674,17.7120675 C37.7555807,10.7868313 30.3581228,8.02435137 27.0123387,9.96162897 C23.8714617,11.7802616 22.6234311,19.0277871 24.5030006,28.6358163 Z M67.6383898,39.2904004 C68.6318214,41.0061816 69.5909014,42.7416364 70.515056,44.4957272 C71.7799041,41.5340299 72.854007,38.6449363 73.7156792,35.8820137 C70.8452088,35.2263674 67.788419,34.6906942 64.5975323,34.2878326 C65.6469456,35.9333185 66.6608,37.601228 67.6383898,39.2904004 Z M50.0477969,22.1515144 C48.0465223,24.3114727 46.0563118,26.6923408 44.1134557,29.2551608 C48.0510264,29.0708086 51.9950835,29.071695 55.9325709,29.257817 C53.9914851,26.671091 52.018092,24.2866812 50.0477969,22.1515144 Z M32.3443502,39.3196189 C33.3266551,37.6159291 34.3488172,35.9355476 35.4099913,34.2798639 C32.2399051,34.6760849 29.1972773,35.1980343 26.344067,35.8368578 C27.2132628,38.6391812 28.2776293,41.5411132 29.5216768,44.4926282 C30.4222092,42.7465606 31.3633566,41.0217546 32.3443502,39.3196189 Z M35.5011595,64.8561783 C34.4139789,63.1689968 33.367165,61.4561267 32.3616102,59.7190281 C31.3761569,58.0161282 30.4308738,56.2902817 29.526545,54.5429199 C28.2559436,57.5577417 27.1681212,60.5220952 26.285206,63.3740016 C29.1375312,63.9951169 32.2261856,64.4905039 35.5011595,64.8561783 Z M50.1659615,76.9814288 C52.1229797,74.8258976 54.0892917,72.405186 56.0365735,69.7578094 C54.053444,69.8463504 52.03845,69.891949 50,69.891949 C48.0159854,69.891949 46.0638354,69.8538764 44.1493034,69.7786165 C46.1218113,72.3786237 48.141231,74.7957936 50.1659615,76.9814288 Z M70.5557719,54.3893012 C69.628494,56.1772944 68.6615472,57.9444206 67.6556498,59.6893669 C66.6661395,61.4063052 65.6425815,63.1033821 64.585583,64.7795903 C67.8840128,64.3838119 71.0142683,63.850795 73.9139478,63.1889508 C73.0190834,60.3852993 71.8923153,57.4368832 70.5557719,54.3893012 Z M63.9549293,57.5546428 L63.9553718,57.5546428 C65.4832961,54.9074994 66.9164892,52.2067621 68.2522261,49.4575662 C66.9026062,46.7360977 65.4648404,44.0592674 63.9412098,41.4313224 C62.4261385,38.8102456 60.8190736,36.2434674 59.1230151,33.7357793 C56.1498699,33.5091142 53.0966206,33.3904693 50.0004426,33.3904693 C46.917984,33.3904693 43.8687178,33.5082288 40.8946875,33.733123 C39.1812984,36.2446759 37.5638887,38.82042 36.0459558,41.4547857 L36.0459558,41.4539003 C34.5275466,44.0877051 33.1087158,46.7777124 31.7924729,49.5182168 C33.1120722,52.2579004 34.5352035,54.9464674 36.0587902,57.5781062 C37.5895318,60.2237818 39.2197757,62.8105865 40.9460249,65.3329717 C43.8611942,65.5220068 46.8883322,65.6189592 50,65.6189592 C53.1245021,65.6189592 56.1905858,65.5096111 59.1575351,65.2975553 C60.8401442,62.7692834 62.4401211,60.186948 63.9549293,57.5546428 Z M72.767707,9.83457261 C69.6237321,8.02080973 62.7237161,10.5583955 55.3408628,16.9855884 C54.5569924,17.6697409 53.7902349,18.3732688 53.0413001,19.095521 C55.8993786,22.1758632 58.7463931,25.7347697 61.4942732,29.6487256 C66.2111207,30.0914307 70.7164227,30.804186 74.865018,31.7617571 C75.0268542,31.1016416 75.1767604,30.4386564 75.314663,29.7731258 C77.4186125,19.5568197 76.1161465,11.7665377 72.767707,9.83457261 Z M50,40.483048 C54.9319337,40.483048 58.9296146,44.482446 58.9296146,49.4155092 C58.9296146,54.349015 54.9319337,58.3484131 50,58.3484131 C45.0685089,58.3484131 41.0703854,54.349015 41.0703854,49.4155092 C41.0703854,44.482446 45.0685089,40.483048 50,40.483048 Z" id="react" fill="#53C1DE" fill-rule="nonzero"></path>
    </g>
</svg>